Hanif_Deep_7_5_grf.mot
version=1
nRows=64
nColumns=19
inDegrees=yes
endheader
time	right_ground_force_vx	right_ground_force_vy	right_ground_force_vz	right_ground_force_px	right_ground_force_py	right_ground_force_pz	right_ground_torque_x	right_ground_torque_y	right_ground_torque_z	left_ground_force_vx	left_ground_force_vy	left_ground_force_vz	left_ground_force_px	left_ground_force_py	left_ground_force_pz	left_ground_torque_x	left_ground_torque_y	left_ground_torque_z
3.900000	-8.902440	256.924000	37.324100	0.225952	0.000000	-1.428100	-20.144900	2.080480	7.211270	-3.165280	276.358000	-41.031000	0.216011	0.000000	-1.012310	30.282500	-5.455750	5.383590
3.905000	-8.341500	259.945000	37.641200	0.225676	0.000000	-1.429030	-20.132200	2.242320	7.231950	-2.560640	277.671000	-40.865900	0.216159	0.000000	-1.011960	30.315700	-5.530070	5.438960
3.910000	-7.816970	264.912000	37.626900	0.226581	0.000000	-1.428960	-20.526500	2.416780	7.612460	-1.757510	281.567000	-41.230400	0.216516	0.000000	-1.012800	30.956300	-5.669650	5.608560
3.915000	-7.967040	268.054000	37.696100	0.225657	0.000000	-1.429030	-20.753500	2.504850	7.452080	-1.454110	287.131000	-41.774600	0.215512	0.000000	-1.012260	31.406800	-5.797610	5.414850
3.920000	-7.675410	270.799000	37.260100	0.226033	0.000000	-1.429730	-20.774400	2.676120	7.631980	-0.153964	292.023000	-42.256600	0.216315	0.000000	-1.012590	32.007100	-5.938340	5.725900
3.925000	-7.456490	273.561000	36.913900	0.225191	0.000000	-1.429890	-20.939000	2.874570	7.481130	0.162364	295.018000	-42.777600	0.215954	0.000000	-1.012520	32.306600	-6.052330	5.680800
3.930000	-7.566330	273.995000	36.471000	0.224754	0.000000	-1.429470	-21.090100	2.917650	7.367980	0.944387	297.462000	-43.423700	0.216009	0.000000	-1.012390	32.517000	-6.084750	5.736680
3.935000	-8.147870	276.903000	35.421100	0.224778	0.000000	-1.430080	-21.157100	3.049840	7.442630	0.976309	300.646000	-43.086000	0.216394	0.000000	-1.013090	33.075400	-6.117240	5.891250
3.940000	-7.944060	279.469000	35.271300	0.224778	0.000000	-1.431440	-20.966600	3.115440	7.502870	0.394282	303.692000	-42.453200	0.216770	0.000000	-1.013350	33.503700	-6.089410	6.037650
3.945000	-8.288130	278.938000	35.248500	0.223923	0.000000	-1.430850	-21.101300	3.171630	7.259190	-0.214621	305.705000	-41.363600	0.217434	0.000000	-1.013420	33.761600	-6.016840	6.244700
3.950000	-8.058430	278.923000	35.140400	0.223441	0.000000	-1.431050	-21.040500	3.230570	7.125090	-1.198240	308.713000	-40.218300	0.218165	0.000000	-1.012620	33.867300	-5.870300	6.484810
3.955000	-8.245180	282.338000	35.574900	0.223510	0.000000	-1.433340	-20.651600	3.256980	7.228930	-1.737650	308.102000	-38.807100	0.218567	0.000000	-1.012870	33.889200	-5.836100	6.570380
3.960000	-8.541700	282.396000	35.675500	0.222574	0.000000	-1.433550	-20.604600	3.329910	6.975310	-2.107680	311.239000	-37.983900	0.218618	0.000000	-1.012740	34.201600	-5.798660	6.616810
3.965000	-8.223390	282.060000	35.786600	0.222128	0.000000	-1.433890	-20.479500	3.399280	6.848430	-2.409210	311.177000	-37.451100	0.219859	0.000000	-1.013470	34.427100	-5.584980	6.973440
3.970000	-8.104160	284.464000	35.954500	0.221608	0.000000	-1.435330	-20.239000	3.412380	6.748600	-2.726850	311.926000	-36.611800	0.220291	0.000000	-1.013370	34.483700	-5.523920	7.100180
3.975000	-7.629570	286.991000	35.965800	0.221122	0.000000	-1.435090	-20.483300	3.639670	6.680950	-2.720290	311.693000	-36.463300	0.221082	0.000000	-1.014010	34.657600	-5.414140	7.329750
3.980000	-7.384550	289.290000	35.961400	0.220983	0.000000	-1.435150	-20.623600	3.696510	6.688410	-2.744410	313.767000	-35.778900	0.221149	0.000000	-1.013630	34.769000	-5.444950	7.377710
3.985000	-7.442280	294.790000	35.985200	0.220325	0.000000	-1.436300	-20.676500	3.855460	6.614940	-1.535470	317.479000	-35.985400	0.221879	0.000000	-1.013510	35.114900	-5.448630	7.672090
3.990000	-7.578450	298.273000	36.295700	0.220181	0.000000	-1.436860	-20.752600	3.851560	6.640900	-1.227150	319.051000	-36.223400	0.222369	0.000000	-1.013050	35.137000	-5.468550	7.864970
3.995000	-6.807400	302.493000	36.508700	0.218796	0.000000	-1.437740	-20.764700	4.051850	6.313500	-1.338800	320.279000	-35.445000	0.222342	0.000000	-1.014140	35.622200	-5.449250	7.862910
4.000000	-6.921050	301.726000	36.298300	0.218550	0.000000	-1.437080	-20.916400	4.156000	6.235360	-0.515402	321.636000	-35.306400	0.222939	0.000000	-1.014080	35.737700	-5.461700	8.072900
4.005000	-7.433740	304.911000	36.407400	0.217846	0.000000	-1.438200	-20.803000	4.215280	6.082580	-0.911404	322.746000	-34.827300	0.223336	0.000000	-1.013690	35.741700	-5.452300	8.218490
4.010000	-7.213100	305.520000	36.179800	0.217382	0.000000	-1.438860	-20.642700	4.347260	5.957200	-1.818400	323.590000	-34.622700	0.223038	0.000000	-1.013070	35.654100	-5.353940	8.134530
4.015000	-7.319760	306.026000	36.442200	0.216256	0.000000	-1.439570	-20.460200	4.380590	5.624750	-2.303680	323.733000	-34.295200	0.222568	0.000000	-1.013350	35.768000	-5.368060	7.983720
4.020000	-7.336590	309.091000	36.519700	0.215509	0.000000	-1.440880	-20.257600	4.435290	5.441120	-2.863450	322.861000	-33.556500	0.223158	0.000000	-1.013840	35.842300	-5.390680	8.150730
4.025000	-8.065510	309.491000	36.781100	0.214639	0.000000	-1.441400	-20.138000	4.443440	5.184780	-2.272250	322.545000	-33.465100	0.222542	0.000000	-1.012530	35.371900	-5.376120	7.932810
4.030000	-7.818350	312.013000	36.822300	0.213353	0.000000	-1.442120	-20.068400	4.421640	4.804960	-1.627570	323.323000	-33.066700	0.222109	0.000000	-1.012380	35.399500	-5.639860	7.818000
4.035000	-8.161010	311.759000	36.980400	0.212299	0.000000	-1.442990	-19.787700	4.532190	4.486810	-1.015060	324.845000	-33.096500	0.221871	0.000000	-1.012070	35.452500	-5.748460	7.775550
4.040000	-7.646750	311.818000	37.376100	0.210994	0.000000	-1.443640	-19.578300	4.613490	4.087660	-0.940689	324.109000	-32.679600	0.221035	0.000000	-1.011910	35.318800	-5.911940	7.493220
4.045000	-7.108020	313.149000	38.227000	0.210092	0.000000	-1.444230	-19.468900	4.656320	3.829310	-0.406872	323.406000	-31.835400	0.220795	0.000000	-1.011500	35.098100	-5.942350	7.379570
4.050000	-5.786940	312.038000	38.922400	0.208607	0.000000	-1.445040	-19.121100	4.713220	3.359340	-0.016886	322.926000	-31.419800	0.220453	0.000000	-1.010500	34.714500	-6.067720	7.257930
4.055000	-5.117980	311.984000	39.517600	0.206887	0.000000	-1.445660	-18.914200	4.803810	2.830830	-0.486773	321.834000	-31.578900	0.219837	0.000000	-1.010680	34.665900	-6.172860	7.056400
4.060000	-3.398980	312.385000	40.506400	0.206194	0.000000	-1.445850	-18.847300	4.940200	2.634690	-0.315815	321.638000	-31.275900	0.218744	0.000000	-1.009500	34.261500	-6.222500	6.694120
4.065000	-3.292270	313.870000	39.894100	0.205314	0.000000	-1.446570	-18.710000	4.994710	2.354610	0.178388	319.104000	-31.274300	0.218223	0.000000	-1.009240	33.897900	-6.364810	6.492740
4.070000	-3.465430	316.228000	39.485000	0.204480	0.000000	-1.447060	-18.696400	5.019220	2.091150	0.226355	318.103000	-30.897300	0.217305	0.000000	-1.008840	33.664600	-6.412320	6.177170
4.075000	-4.143560	317.999000	39.007600	0.203650	0.000000	-1.447200	-18.768100	4.930240	1.812730	0.083880	318.388000	-31.270100	0.216515	0.000000	-1.008400	33.555200	-6.613990	5.957700
4.080000	-3.972310	320.977000	39.261700	0.203047	0.000000	-1.448010	-18.680100	5.008290	1.633540	0.011967	319.587000	-31.361700	0.216356	0.000000	-1.008000	33.558000	-6.614650	5.926560
4.085000	-4.186330	323.447000	39.595000	0.202126	0.000000	-1.448660	-18.614700	4.987470	1.337820	-0.382456	319.171000	-31.279400	0.215628	0.000000	-1.007430	33.339200	-6.597690	5.686270
4.090000	-4.383420	325.554000	39.609100	0.201422	0.000000	-1.448320	-18.849700	4.976090	1.106130	-0.326452	321.228000	-31.566100	0.214868	0.000000	-1.006040	33.105600	-6.723260	5.486000
4.095000	-3.878480	326.976000	40.619400	0.200303	0.000000	-1.449090	-18.669200	4.969630	0.745530	-0.348793	321.765000	-32.225100	0.214544	0.000000	-1.006700	33.376300	-6.757810	5.407250
4.100000	-3.521920	328.301000	40.568000	0.199126	0.000000	-1.449100	-18.737400	5.071870	0.360305	-1.074430	324.108000	-32.657400	0.214183	0.000000	-1.005690	33.306000	-6.801740	5.339870
4.105000	-3.212070	332.149000	40.334300	0.197688	0.000000	-1.449840	-18.704300	5.096090	-0.138495	-1.035420	327.040000	-32.723200	0.213819	0.000000	-1.005380	33.506800	-6.765680	5.252230
4.110000	-2.987260	330.224000	40.259400	0.196932	0.000000	-1.450140	-18.493100	5.019040	-0.396091	-1.907430	327.453000	-32.673200	0.213745	0.000000	-1.005130	33.484900	-6.809920	5.244670
4.115000	-2.800240	329.572000	39.841300	0.195509	0.000000	-1.450310	-18.395400	4.969700	-0.882231	-1.857280	327.884000	-32.610900	0.213426	0.000000	-1.005120	33.526800	-6.891070	5.149910
4.120000	-1.998880	330.052000	39.578700	0.194975	0.000000	-1.450730	-18.271100	4.963730	-1.074010	-1.597830	330.178000	-32.657000	0.213241	0.000000	-1.004760	33.635800	-6.950900	5.118400
4.125000	-1.220100	330.352000	38.784400	0.193650	0.000000	-1.450520	-18.344400	5.002850	-1.531310	-1.703580	331.441000	-32.973400	0.212780	0.000000	-1.003670	33.406100	-6.970850	4.988350
4.130000	-1.431010	332.963000	38.434300	0.193103	0.000000	-1.451520	-18.158500	4.870410	-1.755780	-2.323620	332.626000	-33.324500	0.211944	0.000000	-1.003040	33.328000	-6.958300	4.733340
4.135000	-1.780990	333.932000	37.838200	0.192347	0.000000	-1.451440	-18.245300	4.799460	-2.033390	-2.928670	332.179000	-33.773500	0.211332	0.000000	-1.002810	33.220500	-6.946880	4.539200
4.140000	-1.546580	333.331000	37.744300	0.191232	0.000000	-1.452040	-18.007500	4.701950	-2.418340	-2.610460	331.668000	-34.209000	0.210783	0.000000	-1.001920	32.869800	-7.015740	4.364640
4.145000	-0.692243	335.142000	37.832300	0.189812	0.000000	-1.451990	-18.109600	4.846660	-2.906570	-1.976090	332.336000	-34.788000	0.209818	0.000000	-1.001640	32.827100	-7.100520	4.062320
4.150000	0.308582	336.513000	38.318100	0.189081	0.000000	-1.451950	-18.184100	4.915950	-3.164200	-1.200090	332.206000	-35.041600	0.208953	0.000000	-1.001410	32.720200	-7.405270	3.801020
4.155000	1.167990	337.372000	39.028800	0.188490	0.000000	-1.452790	-17.937200	4.828910	-3.383660	-0.192747	333.851000	-35.408100	0.208431	0.000000	-1.001470	32.878400	-7.615320	3.656190
4.160000	1.520270	339.647000	39.257400	0.187755	0.000000	-1.452490	-18.153700	4.906790	-3.656860	0.542970	335.212000	-36.294600	0.207445	0.000000	-1.000510	32.674600	-7.787990	3.362270
4.165000	2.429620	338.290000	39.234400	0.186604	0.000000	-1.453080	-17.872700	4.808690	-4.050040	1.569280	335.230000	-36.313400	0.207054	0.000000	-1.000240	32.560400	-7.981010	3.240510
4.170000	2.306550	340.344000	38.467600	0.186492	0.000000	-1.453020	-18.004300	4.684790	-4.140260	2.441910	335.055000	-36.502300	0.206146	0.000000	-0.999237	32.184800	-8.244040	2.956160
4.175000	2.555770	337.895000	38.677800	0.185534	0.000000	-1.452950	-17.894600	4.607670	-4.440000	3.687250	333.131000	-36.851900	0.205990	0.000000	-0.999288	31.985100	-8.399150	2.909690
4.180000	2.302430	337.897000	37.640300	0.184080	0.000000	-1.453180	-17.820900	4.549940	-4.952860	3.440570	334.043000	-37.046100	0.204574	0.000000	-0.999340	32.095900	-8.477700	2.450090
4.185000	2.242620	335.032000	36.788400	0.183602	0.000000	-1.453590	-17.534900	4.546230	-5.073920	4.821810	332.032000	-37.639600	0.203903	0.000000	-0.998660	31.641400	-8.633530	2.239090
4.190000	1.915600	333.497000	35.981900	0.183505	0.000000	-1.454060	-17.301900	4.407230	-5.100460	5.881550	327.634000	-37.051800	0.203319	0.000000	-0.998825	31.247000	-8.714620	2.023250
4.195000	1.242100	331.449000	35.909300	0.182379	0.000000	-1.454340	-17.110400	4.293930	-5.450780	6.368140	327.662000	-36.899900	0.202279	0.000000	-0.997568	30.825300	-8.803830	1.679990
4.200000	0.643067	331.281000	35.360700	0.182176	0.000000	-1.454880	-16.927400	4.075180	-5.540400	7.903810	326.148000	-37.130800	0.201783	0.000000	-0.998029	30.792600	-8.980720	1.525970
4.205000	-0.298426	329.885000	35.216600	0.181959	0.000000	-1.455270	-16.739600	3.966120	-5.594290	8.289220	324.025000	-36.524700	0.201198	0.000000	-0.998145	30.615800	-9.093610	1.329410
4.210000	-1.102140	329.506000	34.985800	0.181489	0.000000	-1.455580	-16.624000	3.898890	-5.748470	8.940960	324.549000	-35.744700	0.200473	0.000000	-0.997199	30.341000	-9.223890	1.078540
4.215000	-1.368240	329.329000	35.086000	0.181110	0.000000	-1.455070	-16.785300	3.783560	-5.881100	9.652560	324.731000	-35.614100	0.200519	0.000000	-0.996803	30.210700	-9.298530	1.091190
